<svg width="38" height="38" viewBox="0 0 38 38" fill="none" xmlns="http://www.w3.org/2000/svg">
<path d="M19 38C16.4271 38 13.9655 37.499 11.6152 36.4971C9.26497 35.4951 7.24251 34.1468 5.54785 32.4521C3.85319 30.7575 2.50488 28.735 1.50293 26.3848C0.500977 24.0345 0 21.5729 0 19C0 16.4271 0.500977 13.9655 1.50293 11.6152C2.50488 9.26497 3.85319 7.24251 5.54785 5.54785C7.24251 3.85319 9.26497 2.50488 11.6152 1.50293C13.9655 0.500977 16.4271 0 19 0C21.5729 0 24.0345 0.500977 26.3848 1.50293C28.735 2.50488 30.7575 3.85319 32.4521 5.54785C34.1468 7.24251 35.4951 9.26497 36.4971 11.6152C37.499 13.9655 38 16.4271 38 19C38 21.5729 37.499 24.0345 36.4971 26.3848C35.4951 28.735 34.1468 30.7575 32.4521 32.4521C30.7575 34.1468 28.735 35.4951 26.3848 36.4971C24.0345 37.499 21.5729 38 19 38ZM28.5 11.875C28.5 11.2318 28.2712 10.6751 27.8135 10.2051C27.3558 9.73503 26.793 9.5 26.125 9.5H11.875C11.2318 9.5 10.6751 9.73503 10.2051 10.2051C9.73503 10.6751 9.5 11.2318 9.5 11.875V14.25H13.7305C15.1654 12.6667 16.9219 11.875 19 11.875C21.0781 11.875 22.8346 12.6667 24.2695 14.25H28.5V11.875ZM14.25 19C14.25 20.3112 14.7139 21.4307 15.6416 22.3584C16.5693 23.2861 17.6888 23.75 19 23.75C20.3112 23.75 21.4307 23.2861 22.3584 22.3584C23.2861 21.4307 23.75 20.3112 23.75 19C23.75 17.6888 23.2861 16.5693 22.3584 15.6416C21.4307 14.7139 20.3112 14.25 19 14.25C17.6888 14.25 16.5693 14.7139 15.6416 15.6416C14.7139 16.5693 14.25 17.6888 14.25 19ZM28.5 16.625H25.6797C25.9766 17.4414 26.125 18.2331 26.125 19C26.125 20.9792 25.4323 22.6615 24.0469 24.0469C22.6615 25.4323 20.9792 26.125 19 26.125C17.0208 26.125 15.3385 25.4323 13.9531 24.0469C12.5677 22.6615 11.875 20.9792 11.875 19C11.875 18.2331 12.0234 17.4414 12.3203 16.625H9.5V26.125C9.5 26.793 9.72884 27.3558 10.1865 27.8135C10.6442 28.2712 11.207 28.5 11.875 28.5H26.125C26.793 28.5 27.3558 28.2712 27.8135 27.8135C28.2712 27.3558 28.5 26.793 28.5 26.125V16.625Z" fill="white"/>
</svg>
