<svg width="39" height="39" viewBox="0 0 39 39" fill="none" xmlns="http://www.w3.org/2000/svg">
<path d="M19.7599 0.759766C9.26635 0.759766 0.759888 9.26622 0.759888 19.7598C0.759888 30.2533 9.26635 38.7598 19.7599 38.7598C30.2534 38.7598 38.7599 30.2533 38.7599 19.7598C38.7599 9.26622 30.2534 0.759766 19.7599 0.759766ZM15.1088 27.6349H11.2613V15.2532H15.1088V27.6349ZM13.1613 13.7332C11.9461 13.7332 11.1604 12.8723 11.1604 11.8075C11.1604 10.7209 11.9699 9.8857 13.2108 9.8857C14.4518 9.8857 15.2118 10.7209 15.2355 11.8075C15.2355 12.8723 14.4518 13.7332 13.1613 13.7332ZM29.1609 27.6349H25.3134V20.7731C25.3134 19.1759 24.7553 18.0913 23.364 18.0913C22.3011 18.0913 21.6698 18.8256 21.3907 19.5322C21.2878 19.7835 21.2621 20.1398 21.2621 20.494V27.6329H17.4126V19.2016C17.4126 17.6559 17.3631 16.3635 17.3117 15.2512H20.6545L20.8306 16.9711H20.9078C21.4145 16.1636 22.6554 14.9722 24.7316 14.9722C27.2629 14.9722 29.1609 16.6683 29.1609 20.3139V27.6349Z" fill="white"/>
</svg>
